<?xml version="1.0" encoding="UTF-8"?>
<svg xmlns="http://www.w3.org/2000/svg" width="960" height="720" viewBox="0 0 960 720" role="img" aria-labelledby="title desc">
  <title id="title">Neutrales Studio-Mockup zu Lernspielzeug</title>
  <desc id="desc">Lokales neutrales Studio-Mockup ohne Markenlogo, Preise oder Shop-Elemente.</desc>
  <defs>
    <linearGradient id="bg" x1="0" y1="0" x2="1" y2="1">
      <stop offset="0" stop-color="#fffaf1"/>
      <stop offset="1" stop-color="#f4f8fb"/>
    </linearGradient>
    <radialGradient id="halo" cx="50%" cy="45%" r="55%">
      <stop offset="0" stop-color="#76b7d6" stop-opacity="0.18"/>
      <stop offset="1" stop-color="#76b7d6" stop-opacity="0"/>
    </radialGradient>
    <filter id="shadow" x="-20%" y="-20%" width="140%" height="150%">
      <feDropShadow dx="0" dy="28" stdDeviation="22" flood-color="#233044" flood-opacity="0.18"/>
    </filter>
    <filter id="softShadow" x="-20%" y="-20%" width="140%" height="140%">
      <feDropShadow dx="0" dy="12" stdDeviation="10" flood-color="#233044" flood-opacity="0.14"/>
    </filter>
    <linearGradient id="shine" x1="0" y1="0" x2="1" y2="1">
      <stop offset="0" stop-color="#ffffff" stop-opacity="0.55"/>
      <stop offset="1" stop-color="#ffffff" stop-opacity="0"/>
    </linearGradient>
  </defs>
  <rect width="960" height="720" fill="url(#bg)"/>
  <rect width="960" height="720" fill="url(#halo)"/>
  <ellipse cx="480" cy="616" rx="300" ry="44" fill="#1f2d3d" opacity="0.10"/>
  <g filter="url(#shadow)">
    
    <g transform="translate(185 92)">
      <rect x="90" y="80" width="500" height="390" rx="42" fill="#f7c45f"/>
      <rect x="128" y="118" width="424" height="276" rx="28" fill="#f9fcff"/>
      <circle cx="340" cy="432" r="20" fill="#ffffff" opacity="0.85"/>
      <g filter="url(#softShadow)">
        <circle cx="250" cy="250" r="98" fill="#76b7d6"/>
        <path d="M250 155c32 50 32 140 0 190M155 250h190M187 190c38 20 88 20 126 0M187 310c38-20 88-20 126 0" fill="none" stroke="#fff" stroke-width="12" stroke-linecap="round"/>
        <rect x="390" y="178" width="104" height="36" rx="18" fill="#ee7a68"/>
        <rect x="390" y="238" width="126" height="36" rx="18" fill="#9ed9c3"/>
        <rect x="390" y="298" width="84" height="36" rx="18" fill="#7b6ed6"/>
      </g>
    </g>
  </g>
  <g opacity="0.35">
    <circle cx="164" cy="129" r="18" fill="#f7c45f"/>
    <circle cx="796" cy="124" r="12" fill="#76b7d6"/>
    <path d="M802 546l16 31 34 5-25 24 6 34-31-16-31 16 6-34-25-24 34-5z" fill="#ee7a68"/>
  </g>
</svg>
