<?xml version="1.0" encoding="UTF-8"?>
<svg xmlns="http://www.w3.org/2000/svg" width="960" height="720" viewBox="0 0 960 720" role="img" aria-labelledby="title desc">
  <title id="title">Neutrales Studio-Mockup zu Konstruktionsspielzeug / Bausteine</title>
  <desc id="desc">Lokales neutrales Studio-Mockup ohne Markenlogo, Preise oder Shop-Elemente.</desc>
  <defs>
    <linearGradient id="bg" x1="0" y1="0" x2="1" y2="1">
      <stop offset="0" stop-color="#fffaf1"/>
      <stop offset="1" stop-color="#f4f8fb"/>
    </linearGradient>
    <radialGradient id="halo" cx="50%" cy="45%" r="55%">
      <stop offset="0" stop-color="#ffd166" stop-opacity="0.18"/>
      <stop offset="1" stop-color="#ffd166" stop-opacity="0"/>
    </radialGradient>
    <filter id="shadow" x="-20%" y="-20%" width="140%" height="150%">
      <feDropShadow dx="0" dy="28" stdDeviation="22" flood-color="#233044" flood-opacity="0.18"/>
    </filter>
    <filter id="softShadow" x="-20%" y="-20%" width="140%" height="140%">
      <feDropShadow dx="0" dy="12" stdDeviation="10" flood-color="#233044" flood-opacity="0.14"/>
    </filter>
    <linearGradient id="shine" x1="0" y1="0" x2="1" y2="1">
      <stop offset="0" stop-color="#ffffff" stop-opacity="0.55"/>
      <stop offset="1" stop-color="#ffffff" stop-opacity="0"/>
    </linearGradient>
  </defs>
  <rect width="960" height="720" fill="url(#bg)"/>
  <rect width="960" height="720" fill="url(#halo)"/>
  <ellipse cx="480" cy="616" rx="300" ry="44" fill="#1f2d3d" opacity="0.10"/>
  <g filter="url(#shadow)">
    
    <g transform="translate(145 130)">
      
    <g>
      <rect x="70" y="250" width="250" height="120" rx="22" fill="#ffd166"/>
      <rect x="82" y="260" width="226" height="100" rx="18" fill="url(#shine)"/>
      <ellipse cx="130" cy="262" rx="31" ry="13" fill="#fff" opacity="0.35"/><ellipse cx="195" cy="262" rx="31" ry="13" fill="#fff" opacity="0.35"/><ellipse cx="260" cy="262" rx="31" ry="13" fill="#fff" opacity="0.35"/>
      <ellipse cx="130" cy="284" rx="31" ry="18" fill="#ffd166"/><ellipse cx="195" cy="284" rx="31" ry="18" fill="#ffd166"/><ellipse cx="260" cy="284" rx="31" ry="18" fill="#ffd166"/>
    </g>
      
    <g>
      <rect x="250" y="138" width="250" height="120" rx="22" fill="#4fb3c4"/>
      <rect x="262" y="148" width="226" height="100" rx="18" fill="url(#shine)"/>
      <ellipse cx="310" cy="150" rx="31" ry="13" fill="#fff" opacity="0.35"/><ellipse cx="375" cy="150" rx="31" ry="13" fill="#fff" opacity="0.35"/><ellipse cx="440" cy="150" rx="31" ry="13" fill="#fff" opacity="0.35"/>
      <ellipse cx="310" cy="172" rx="31" ry="18" fill="#4fb3c4"/><ellipse cx="375" cy="172" rx="31" ry="18" fill="#4fb3c4"/><ellipse cx="440" cy="172" rx="31" ry="18" fill="#4fb3c4"/>
    </g>
      
    <g>
      <rect x="430" y="250" width="250" height="120" rx="22" fill="#f07167"/>
      <rect x="442" y="260" width="226" height="100" rx="18" fill="url(#shine)"/>
      <ellipse cx="490" cy="262" rx="31" ry="13" fill="#fff" opacity="0.35"/><ellipse cx="555" cy="262" rx="31" ry="13" fill="#fff" opacity="0.35"/><ellipse cx="620" cy="262" rx="31" ry="13" fill="#fff" opacity="0.35"/>
      <ellipse cx="490" cy="284" rx="31" ry="18" fill="#f07167"/><ellipse cx="555" cy="284" rx="31" ry="18" fill="#f07167"/><ellipse cx="620" cy="284" rx="31" ry="18" fill="#f07167"/>
    </g>
      
    <g>
      <rect x="165" y="350" width="250" height="120" rx="22" fill="#90be6d"/>
      <rect x="177" y="360" width="226" height="100" rx="18" fill="url(#shine)"/>
      <ellipse cx="225" cy="362" rx="31" ry="13" fill="#fff" opacity="0.35"/><ellipse cx="290" cy="362" rx="31" ry="13" fill="#fff" opacity="0.35"/><ellipse cx="355" cy="362" rx="31" ry="13" fill="#fff" opacity="0.35"/>
      <ellipse cx="225" cy="384" rx="31" ry="18" fill="#90be6d"/><ellipse cx="290" cy="384" rx="31" ry="18" fill="#90be6d"/><ellipse cx="355" cy="384" rx="31" ry="18" fill="#90be6d"/>
    </g>
      
    <g>
      <rect x="345" y="428" width="250" height="120" rx="22" fill="#6c7bd9"/>
      <rect x="357" y="438" width="226" height="100" rx="18" fill="url(#shine)"/>
      <ellipse cx="405" cy="440" rx="31" ry="13" fill="#fff" opacity="0.35"/><ellipse cx="470" cy="440" rx="31" ry="13" fill="#fff" opacity="0.35"/><ellipse cx="535" cy="440" rx="31" ry="13" fill="#fff" opacity="0.35"/>
      <ellipse cx="405" cy="462" rx="31" ry="18" fill="#6c7bd9"/><ellipse cx="470" cy="462" rx="31" ry="18" fill="#6c7bd9"/><ellipse cx="535" cy="462" rx="31" ry="18" fill="#6c7bd9"/>
    </g>
    </g>
  </g>
  <g opacity="0.35">
    <circle cx="153" cy="158" r="18" fill="#ffd166"/>
    <circle cx="737" cy="183" r="12" fill="#4fb3c4"/>
    <path d="M802 546l16 31 34 5-25 24 6 34-31-16-31 16 6-34-25-24 34-5z" fill="#f07167"/>
  </g>
</svg>
