<?xml version="1.0" encoding="UTF-8"?>
<svg xmlns="http://www.w3.org/2000/svg" width="960" height="720" viewBox="0 0 960 720" role="img" aria-labelledby="title desc">
  <title id="title">Neutrales Studio-Mockup zu Kreativ- und Bastelspielzeug</title>
  <desc id="desc">Lokales neutrales Studio-Mockup ohne Markenlogo, Preise oder Shop-Elemente.</desc>
  <defs>
    <linearGradient id="bg" x1="0" y1="0" x2="1" y2="1">
      <stop offset="0" stop-color="#fffaf1"/>
      <stop offset="1" stop-color="#f4f8fb"/>
    </linearGradient>
    <radialGradient id="halo" cx="50%" cy="45%" r="55%">
      <stop offset="0" stop-color="#ffd166" stop-opacity="0.18"/>
      <stop offset="1" stop-color="#ffd166" stop-opacity="0"/>
    </radialGradient>
    <filter id="shadow" x="-20%" y="-20%" width="140%" height="150%">
      <feDropShadow dx="0" dy="28" stdDeviation="22" flood-color="#233044" flood-opacity="0.18"/>
    </filter>
    <filter id="softShadow" x="-20%" y="-20%" width="140%" height="140%">
      <feDropShadow dx="0" dy="12" stdDeviation="10" flood-color="#233044" flood-opacity="0.14"/>
    </filter>
    <linearGradient id="shine" x1="0" y1="0" x2="1" y2="1">
      <stop offset="0" stop-color="#ffffff" stop-opacity="0.55"/>
      <stop offset="1" stop-color="#ffffff" stop-opacity="0"/>
    </linearGradient>
  </defs>
  <rect width="960" height="720" fill="url(#bg)"/>
  <rect width="960" height="720" fill="url(#halo)"/>
  <ellipse cx="480" cy="616" rx="300" ry="44" fill="#1f2d3d" opacity="0.10"/>
  <g filter="url(#shadow)">
    
    <g transform="translate(165 90)">
      <rect x="130" y="105" width="420" height="430" rx="32" fill="#ffffff"/>
      <rect x="166" y="142" width="348" height="268" rx="22" fill="#ffd166" opacity="0.18"/>
      <circle cx="270" cy="252" r="68" fill="#4fb3c4"/>
      <path d="M334 326c46-96 122-120 166-72-52 16-84 50-110 104z" fill="#f07167"/>
      <rect x="124" y="468" width="432" height="68" rx="26" fill="#90be6d"/>
      <g transform="rotate(-28 535 232)">
        <rect x="492" y="74" width="44" height="360" rx="22" fill="#38465a"/>
        <path d="M492 95c6-50 38-50 44 0z" fill="#6c7bd9"/>
        <path d="M492 405c8 58 36 58 44 0z" fill="#f3c68a"/>
      </g>
    </g>
  </g>
  <g opacity="0.35">
    <circle cx="138" cy="133" r="18" fill="#ffd166"/>
    <circle cx="772" cy="148" r="12" fill="#4fb3c4"/>
    <path d="M802 546l16 31 34 5-25 24 6 34-31-16-31 16 6-34-25-24 34-5z" fill="#f07167"/>
  </g>
</svg>
