<?xml version="1.0" encoding="UTF-8"?>
<svg xmlns="http://www.w3.org/2000/svg" width="960" height="720" viewBox="0 0 960 720" role="img" aria-labelledby="title desc">
  <title id="title">Neutrales Studio-Mockup zu Brettspiele und Familienspiele</title>
  <desc id="desc">Lokales neutrales Studio-Mockup ohne Markenlogo, Preise oder Shop-Elemente.</desc>
  <defs>
    <linearGradient id="bg" x1="0" y1="0" x2="1" y2="1">
      <stop offset="0" stop-color="#fffaf1"/>
      <stop offset="1" stop-color="#f4f8fb"/>
    </linearGradient>
    <radialGradient id="halo" cx="50%" cy="45%" r="55%">
      <stop offset="0" stop-color="#76b7d6" stop-opacity="0.18"/>
      <stop offset="1" stop-color="#76b7d6" stop-opacity="0"/>
    </radialGradient>
    <filter id="shadow" x="-20%" y="-20%" width="140%" height="150%">
      <feDropShadow dx="0" dy="28" stdDeviation="22" flood-color="#233044" flood-opacity="0.18"/>
    </filter>
    <filter id="softShadow" x="-20%" y="-20%" width="140%" height="140%">
      <feDropShadow dx="0" dy="12" stdDeviation="10" flood-color="#233044" flood-opacity="0.14"/>
    </filter>
    <linearGradient id="shine" x1="0" y1="0" x2="1" y2="1">
      <stop offset="0" stop-color="#ffffff" stop-opacity="0.55"/>
      <stop offset="1" stop-color="#ffffff" stop-opacity="0"/>
    </linearGradient>
  </defs>
  <rect width="960" height="720" fill="url(#bg)"/>
  <rect width="960" height="720" fill="url(#halo)"/>
  <ellipse cx="480" cy="616" rx="300" ry="44" fill="#1f2d3d" opacity="0.10"/>
  <g filter="url(#shadow)">
    
    <g transform="translate(150 110)">
      <rect x="160" y="90" width="390" height="260" rx="34" fill="#f7c45f"/>
      <rect x="190" y="122" width="330" height="196" rx="26" fill="#fff" opacity="0.28"/>
      <path d="M210 155h95v70h-95zM330 155h95v70h-95zM210 245h95v48h-95zM330 245h95v48h-95z" fill="#fff" opacity="0.75"/>
      <rect x="92" y="355" width="530" height="118" rx="30" fill="#fff"/>
      <circle cx="210" cy="414" r="35" fill="#76b7d6"/>
      <circle cx="306" cy="414" r="35" fill="#ee7a68"/>
      <circle cx="402" cy="414" r="35" fill="#9ed9c3"/>
      <rect x="492" y="386" width="84" height="58" rx="18" fill="#7b6ed6"/>
    </g>
  </g>
  <g opacity="0.35">
    <circle cx="129" cy="144" r="18" fill="#f7c45f"/>
    <circle cx="781" cy="139" r="12" fill="#76b7d6"/>
    <path d="M802 546l16 31 34 5-25 24 6 34-31-16-31 16 6-34-25-24 34-5z" fill="#ee7a68"/>
  </g>
</svg>
