<?xml version="1.0" encoding="UTF-8"?>
<svg xmlns="http://www.w3.org/2000/svg" width="960" height="720" viewBox="0 0 960 720" role="img" aria-labelledby="title desc">
  <title id="title">Neutrales Studio-Mockup zu Puzzle und Denkspiele</title>
  <desc id="desc">Lokales neutrales Studio-Mockup ohne Markenlogo, Preise oder Shop-Elemente.</desc>
  <defs>
    <linearGradient id="bg" x1="0" y1="0" x2="1" y2="1">
      <stop offset="0" stop-color="#fffaf1"/>
      <stop offset="1" stop-color="#f4f8fb"/>
    </linearGradient>
    <radialGradient id="halo" cx="50%" cy="45%" r="55%">
      <stop offset="0" stop-color="#ef765f" stop-opacity="0.18"/>
      <stop offset="1" stop-color="#ef765f" stop-opacity="0"/>
    </radialGradient>
    <filter id="shadow" x="-20%" y="-20%" width="140%" height="150%">
      <feDropShadow dx="0" dy="28" stdDeviation="22" flood-color="#233044" flood-opacity="0.18"/>
    </filter>
    <filter id="softShadow" x="-20%" y="-20%" width="140%" height="140%">
      <feDropShadow dx="0" dy="12" stdDeviation="10" flood-color="#233044" flood-opacity="0.14"/>
    </filter>
    <linearGradient id="shine" x1="0" y1="0" x2="1" y2="1">
      <stop offset="0" stop-color="#ffffff" stop-opacity="0.55"/>
      <stop offset="1" stop-color="#ffffff" stop-opacity="0"/>
    </linearGradient>
  </defs>
  <rect width="960" height="720" fill="url(#bg)"/>
  <rect width="960" height="720" fill="url(#halo)"/>
  <ellipse cx="480" cy="616" rx="300" ry="44" fill="#1f2d3d" opacity="0.10"/>
  <g filter="url(#shadow)">
    
    <g transform="translate(170 112)">
      <rect x="120" y="118" width="440" height="370" rx="36" fill="#ffffff"/>
      <path d="M155 170h142c-7 25 8 52 36 52s43-27 36-52h142v118c-27-7-54 9-54 37s27 44 54 37v86H369c7-27-9-54-37-54s-44 27-37 54H155V330c27 7 54-9 54-37s-27-44-54-37z" fill="#f5b84b"/>
      <path d="M300 170h69c7 25-8 52-36 52s-43-27-33-52z" fill="#5bb4d8"/>
      <path d="M155 256c27-7 54 9 54 37s-27 44-54 37z" fill="#ef765f"/>
      <path d="M511 288c-27-7-54 9-54 37s27 44 54 37z" fill="#8fd4b8"/>
      <path d="M295 448c-7-27 9-54 37-54s44 27 37 54z" fill="#6f7fd6"/>
    </g>
  </g>
  <g opacity="0.35">
    <circle cx="140" cy="115" r="18" fill="#f5b84b"/>
    <circle cx="740" cy="180" r="12" fill="#5bb4d8"/>
    <path d="M802 546l16 31 34 5-25 24 6 34-31-16-31 16 6-34-25-24 34-5z" fill="#ef765f"/>
  </g>
</svg>
