<?xml version="1.0" encoding="UTF-8"?>
<svg xmlns="http://www.w3.org/2000/svg" width="960" height="720" viewBox="0 0 960 720" role="img" aria-labelledby="title desc">
  <title id="title">Neutrales Studio-Mockup zu Fahrzeuge / RC / Spielzeugautos</title>
  <desc id="desc">Lokales neutrales Studio-Mockup ohne Markenlogo, Preise oder Shop-Elemente.</desc>
  <defs>
    <linearGradient id="bg" x1="0" y1="0" x2="1" y2="1">
      <stop offset="0" stop-color="#fffaf1"/>
      <stop offset="1" stop-color="#f4f8fb"/>
    </linearGradient>
    <radialGradient id="halo" cx="50%" cy="45%" r="55%">
      <stop offset="0" stop-color="#ffd166" stop-opacity="0.18"/>
      <stop offset="1" stop-color="#ffd166" stop-opacity="0"/>
    </radialGradient>
    <filter id="shadow" x="-20%" y="-20%" width="140%" height="150%">
      <feDropShadow dx="0" dy="28" stdDeviation="22" flood-color="#233044" flood-opacity="0.18"/>
    </filter>
    <filter id="softShadow" x="-20%" y="-20%" width="140%" height="140%">
      <feDropShadow dx="0" dy="12" stdDeviation="10" flood-color="#233044" flood-opacity="0.14"/>
    </filter>
    <linearGradient id="shine" x1="0" y1="0" x2="1" y2="1">
      <stop offset="0" stop-color="#ffffff" stop-opacity="0.55"/>
      <stop offset="1" stop-color="#ffffff" stop-opacity="0"/>
    </linearGradient>
  </defs>
  <rect width="960" height="720" fill="url(#bg)"/>
  <rect width="960" height="720" fill="url(#halo)"/>
  <ellipse cx="480" cy="616" rx="300" ry="44" fill="#1f2d3d" opacity="0.10"/>
  <g filter="url(#shadow)">
    
    <g transform="translate(145 160)">
      <path d="M145 300c40-95 115-145 220-145h155c74 0 135 61 135 135v72H120z" fill="#ffd166"/>
      <path d="M275 182h95v86H220c15-38 33-66 55-86zM397 182h112c37 0 68 24 83 86H397z" fill="#eaf7ff"/>
      <rect x="110" y="338" width="560" height="70" rx="35" fill="#4fb3c4"/>
      <circle cx="248" cy="414" r="65" fill="#2f3a4d"/>
      <circle cx="248" cy="414" r="33" fill="#fff"/>
      <circle cx="540" cy="414" r="65" fill="#2f3a4d"/>
      <circle cx="540" cy="414" r="33" fill="#fff"/>
      <path d="M98 486c138-58 442-58 602 0" fill="none" stroke="#f07167" stroke-width="18" stroke-linecap="round"/>
    </g>
  </g>
  <g opacity="0.35">
    <circle cx="168" cy="153" r="18" fill="#ffd166"/>
    <circle cx="742" cy="178" r="12" fill="#4fb3c4"/>
    <path d="M802 546l16 31 34 5-25 24 6 34-31-16-31 16 6-34-25-24 34-5z" fill="#f07167"/>
  </g>
</svg>
