<?xml version="1.0" encoding="UTF-8"?>
<svg xmlns="http://www.w3.org/2000/svg" width="960" height="720" viewBox="0 0 960 720" role="img" aria-labelledby="title desc">
  <title id="title">Neutrales Studio-Mockup zu Baby- und Kleinkindspielzeug</title>
  <desc id="desc">Lokales neutrales Studio-Mockup ohne Markenlogo, Preise oder Shop-Elemente.</desc>
  <defs>
    <linearGradient id="bg" x1="0" y1="0" x2="1" y2="1">
      <stop offset="0" stop-color="#fffaf1"/>
      <stop offset="1" stop-color="#f4f8fb"/>
    </linearGradient>
    <radialGradient id="halo" cx="50%" cy="45%" r="55%">
      <stop offset="0" stop-color="#ffd166" stop-opacity="0.18"/>
      <stop offset="1" stop-color="#ffd166" stop-opacity="0"/>
    </radialGradient>
    <filter id="shadow" x="-20%" y="-20%" width="140%" height="150%">
      <feDropShadow dx="0" dy="28" stdDeviation="22" flood-color="#233044" flood-opacity="0.18"/>
    </filter>
    <filter id="softShadow" x="-20%" y="-20%" width="140%" height="140%">
      <feDropShadow dx="0" dy="12" stdDeviation="10" flood-color="#233044" flood-opacity="0.14"/>
    </filter>
    <linearGradient id="shine" x1="0" y1="0" x2="1" y2="1">
      <stop offset="0" stop-color="#ffffff" stop-opacity="0.55"/>
      <stop offset="1" stop-color="#ffffff" stop-opacity="0"/>
    </linearGradient>
  </defs>
  <rect width="960" height="720" fill="url(#bg)"/>
  <rect width="960" height="720" fill="url(#halo)"/>
  <ellipse cx="480" cy="616" rx="300" ry="44" fill="#1f2d3d" opacity="0.10"/>
  <g filter="url(#shadow)">
    
    <g transform="translate(175 100)">
      <circle cx="310" cy="295" r="170" fill="#ffd166"/>
      <circle cx="235" cy="225" r="62" fill="#4fb3c4"/>
      <circle cx="385" cy="225" r="62" fill="#f07167"/>
      <circle cx="310" cy="312" r="78" fill="#fff" opacity="0.45"/>
      <circle cx="278" cy="286" r="14" fill="#2f3a4d"/>
      <circle cx="342" cy="286" r="14" fill="#2f3a4d"/>
      <path d="M270 340c24 30 56 30 80 0" fill="none" stroke="#2f3a4d" stroke-width="12" stroke-linecap="round"/>
      <g transform="translate(455 318)">
        <circle cx="82" cy="82" r="72" fill="none" stroke="#90be6d" stroke-width="34"/>
        <rect x="42" y="142" width="80" height="145" rx="40" fill="#6c7bd9"/>
      </g>
    </g>
  </g>
  <g opacity="0.35">
    <circle cx="118" cy="133" r="18" fill="#ffd166"/>
    <circle cx="752" cy="168" r="12" fill="#4fb3c4"/>
    <path d="M802 546l16 31 34 5-25 24 6 34-31-16-31 16 6-34-25-24 34-5z" fill="#f07167"/>
  </g>
</svg>
