<?xml version="1.0" encoding="UTF-8"?>
<svg xmlns="http://www.w3.org/2000/svg" width="960" height="720" viewBox="0 0 960 720" role="img" aria-labelledby="title desc">
  <title id="title">Neutrales Studio-Mockup zu Geschenkideen / Trendspielzeug / Audio- und Figurenwelt</title>
  <desc id="desc">Lokales neutrales Studio-Mockup ohne Markenlogo, Preise oder Shop-Elemente.</desc>
  <defs>
    <linearGradient id="bg" x1="0" y1="0" x2="1" y2="1">
      <stop offset="0" stop-color="#fffaf1"/>
      <stop offset="1" stop-color="#f4f8fb"/>
    </linearGradient>
    <radialGradient id="halo" cx="50%" cy="45%" r="55%">
      <stop offset="0" stop-color="#6d8dd6" stop-opacity="0.18"/>
      <stop offset="1" stop-color="#6d8dd6" stop-opacity="0"/>
    </radialGradient>
    <filter id="shadow" x="-20%" y="-20%" width="140%" height="150%">
      <feDropShadow dx="0" dy="28" stdDeviation="22" flood-color="#233044" flood-opacity="0.18"/>
    </filter>
    <filter id="softShadow" x="-20%" y="-20%" width="140%" height="140%">
      <feDropShadow dx="0" dy="12" stdDeviation="10" flood-color="#233044" flood-opacity="0.14"/>
    </filter>
    <linearGradient id="shine" x1="0" y1="0" x2="1" y2="1">
      <stop offset="0" stop-color="#ffffff" stop-opacity="0.55"/>
      <stop offset="1" stop-color="#ffffff" stop-opacity="0"/>
    </linearGradient>
  </defs>
  <rect width="960" height="720" fill="url(#bg)"/>
  <rect width="960" height="720" fill="url(#halo)"/>
  <ellipse cx="480" cy="616" rx="300" ry="44" fill="#1f2d3d" opacity="0.10"/>
  <g filter="url(#shadow)">
    
    <g transform="translate(170 102)">
      <rect x="154" y="176" width="330" height="300" rx="52" fill="#f2a65a"/>
      <rect x="190" y="214" width="258" height="130" rx="34" fill="#fff" opacity="0.30"/>
      <circle cx="320" cy="408" r="36" fill="#fff" opacity="0.84"/>
      <path d="M540 250c65 0 118 52 118 117s-53 118-118 118-118-53-118-118 53-117 118-117z" fill="#83b7e2"/>
      <circle cx="505" cy="346" r="13" fill="#2f3a4d"/>
      <circle cx="575" cy="346" r="13" fill="#2f3a4d"/>
      <path d="M506 399c25 20 43 20 68 0" fill="none" stroke="#2f3a4d" stroke-width="10" stroke-linecap="round"/>
      <path d="M260 152l60-76 60 76M215 152h210" fill="none" stroke="#ef6f6c" stroke-width="28" stroke-linecap="round" stroke-linejoin="round"/>
      <rect x="120" y="492" width="510" height="56" rx="28" fill="#a6d6a1"/>
    </g>
  </g>
  <g opacity="0.35">
    <circle cx="132" cy="117" r="18" fill="#f2a65a"/>
    <circle cx="738" cy="182" r="12" fill="#83b7e2"/>
    <path d="M802 546l16 31 34 5-25 24 6 34-31-16-31 16 6-34-25-24 34-5z" fill="#ef6f6c"/>
  </g>
</svg>
